<mxfile host="65bd71144e">
    <diagram id="aiyQXDXq4j1pHD2lKYrD" name="Page-1">
        <mxGraphModel dx="703" dy="392" grid="1" gridSize="10" guides="1" tooltips="1" connect="1" arrows="1" fold="1" page="1" pageScale="1" pageWidth="850" pageHeight="1100" math="0" shadow="0">
            <root>
                <mxCell id="0"/>
                <mxCell id="1" parent="0"/>
                <mxCell id="2" value="Visualisierung:Grafana" style="html=1;dropTarget=0;fontFamily=Garamond;fontSize=14;fontStyle=1;verticalAlign=top;fillColor=#fff2cc;strokeColor=#d6b656;" parent="1" vertex="1">
                    <mxGeometry x="240" y="571" width="200" height="90" as="geometry"/>
                </mxCell>
                <mxCell id="3" value="" style="shape=module;jettyWidth=8;jettyHeight=4;fontFamily=Garamond;fontSize=14;fontStyle=1;verticalAlign=top;" parent="2" vertex="1">
                    <mxGeometry x="1" width="20" height="20" relative="1" as="geometry">
                        <mxPoint x="-27" y="7" as="offset"/>
                    </mxGeometry>
                </mxCell>
                <mxCell id="4" value="Forecast" style="html=1;dropTarget=0;fontFamily=Garamond;fontSize=14;fontStyle=1;verticalAlign=top;fillColor=#dae8fc;strokeColor=#6c8ebf;" parent="1" vertex="1">
                    <mxGeometry x="40" y="571" width="180" height="90" as="geometry"/>
                </mxCell>
                <mxCell id="5" value="" style="shape=module;jettyWidth=8;jettyHeight=4;fontFamily=Garamond;fontSize=14;fontStyle=1;verticalAlign=top;" parent="4" vertex="1">
                    <mxGeometry x="1" width="20" height="20" relative="1" as="geometry">
                        <mxPoint x="-27" y="7" as="offset"/>
                    </mxGeometry>
                </mxCell>
                <mxCell id="7" value="Zeitreihendatenbank:InfluxDB" style="strokeWidth=2;html=1;shape=mxgraph.flowchart.database;whiteSpace=wrap;fontFamily=Garamond;fontSize=14;fontStyle=1;verticalAlign=middle;fillColor=#f5f5f5;fontColor=#333333;strokeColor=#666666;" parent="1" vertex="1">
                    <mxGeometry x="225" y="360" width="230" height="160" as="geometry"/>
                </mxCell>
                <mxCell id="8" value="Optimierung" style="html=1;dropTarget=0;fontFamily=Garamond;fontSize=14;fontStyle=1;verticalAlign=top;fillColor=#dae8fc;strokeColor=#6c8ebf;" parent="1" vertex="1">
                    <mxGeometry x="460" y="571" width="190" height="90" as="geometry"/>
                </mxCell>
                <mxCell id="9" value="" style="shape=module;jettyWidth=8;jettyHeight=4;fontFamily=Garamond;fontSize=14;fontStyle=1;verticalAlign=top;" parent="8" vertex="1">
                    <mxGeometry x="1" width="20" height="20" relative="1" as="geometry">
                        <mxPoint x="-27" y="7" as="offset"/>
                    </mxGeometry>
                </mxCell>
                <mxCell id="10" value="Datenkollektor" style="html=1;dropTarget=0;fontFamily=Garamond;fontSize=14;fontStyle=1;verticalAlign=top;fillColor=#dae8fc;strokeColor=#6c8ebf;" parent="1" vertex="1">
                    <mxGeometry x="250" y="210" width="180" height="90" as="geometry"/>
                </mxCell>
                <mxCell id="11" value="" style="shape=module;jettyWidth=8;jettyHeight=4;fontFamily=Garamond;fontSize=14;fontStyle=1;verticalAlign=top;" parent="10" vertex="1">
                    <mxGeometry x="1" width="20" height="20" relative="1" as="geometry">
                        <mxPoint x="-27" y="7" as="offset"/>
                    </mxGeometry>
                </mxCell>
                <mxCell id="12" value="MySQL" style="html=1;dropTarget=0;fontFamily=Garamond;fontSize=14;fontStyle=1;verticalAlign=top;fillColor=#fff2cc;strokeColor=#d6b656;" parent="1" vertex="1">
                    <mxGeometry x="40" y="70" width="180" height="90" as="geometry"/>
                </mxCell>
                <mxCell id="13" value="" style="shape=module;jettyWidth=8;jettyHeight=4;fontFamily=Garamond;fontSize=14;fontStyle=1;verticalAlign=top;" parent="12" vertex="1">
                    <mxGeometry x="1" width="20" height="20" relative="1" as="geometry">
                        <mxPoint x="-27" y="7" as="offset"/>
                    </mxGeometry>
                </mxCell>
                <mxCell id="14" value="Sauter Vision Center" style="html=1;dropTarget=0;fontFamily=Garamond;fontSize=14;fontStyle=1;verticalAlign=top;fillColor=#fff2cc;strokeColor=#d6b656;" parent="1" vertex="1">
                    <mxGeometry x="250" y="70" width="180" height="90" as="geometry"/>
                </mxCell>
                <mxCell id="15" value="" style="shape=module;jettyWidth=8;jettyHeight=4;fontFamily=Garamond;fontSize=14;fontStyle=1;verticalAlign=top;" parent="14" vertex="1">
                    <mxGeometry x="1" width="20" height="20" relative="1" as="geometry">
                        <mxPoint x="-27" y="7" as="offset"/>
                    </mxGeometry>
                </mxCell>
                <mxCell id="16" value="Wetterstation" style="html=1;dropTarget=0;fontFamily=Garamond;fontSize=14;fontStyle=1;verticalAlign=top;fillColor=#fff2cc;strokeColor=#d6b656;" parent="1" vertex="1">
                    <mxGeometry x="455" y="70" width="180" height="90" as="geometry"/>
                </mxCell>
                <mxCell id="17" value="" style="shape=module;jettyWidth=8;jettyHeight=4;fontFamily=Garamond;fontSize=14;fontStyle=1;verticalAlign=top;" parent="16" vertex="1">
                    <mxGeometry x="1" width="20" height="20" relative="1" as="geometry">
                        <mxPoint x="-27" y="7" as="offset"/>
                    </mxGeometry>
                </mxCell>
                <mxCell id="18" value="Sensorik" style="html=1;dropTarget=0;fontFamily=Garamond;fontSize=14;fontStyle=1;verticalAlign=top;fillColor=#fff2cc;strokeColor=#d6b656;" parent="1" vertex="1">
                    <mxGeometry x="660" y="70" width="180" height="90" as="geometry"/>
                </mxCell>
                <mxCell id="19" value="" style="shape=module;jettyWidth=8;jettyHeight=4;fontFamily=Garamond;fontSize=14;fontStyle=1;verticalAlign=top;" parent="18" vertex="1">
                    <mxGeometry x="1" width="20" height="20" relative="1" as="geometry">
                        <mxPoint x="-27" y="7" as="offset"/>
                    </mxGeometry>
                </mxCell>
                <mxCell id="29" value="" style="rounded=0;orthogonalLoop=1;jettySize=auto;html=1;endArrow=none;endFill=0;sketch=0;sourcePerimeterSpacing=0;targetPerimeterSpacing=0;exitX=0.25;exitY=1;exitDx=0;exitDy=0;edgeStyle=orthogonalEdgeStyle;fontFamily=Garamond;" edge="1" target="31" parent="1" source="18">
                    <mxGeometry relative="1" as="geometry">
                        <mxPoint x="525" y="235" as="sourcePoint"/>
                    </mxGeometry>
                </mxCell>
                <mxCell id="30" value="" style="rounded=0;orthogonalLoop=1;jettySize=auto;html=1;endArrow=halfCircle;endFill=0;entryX=0.5;entryY=0.5;endSize=6;strokeWidth=1;sketch=0;exitX=1;exitY=0.5;exitDx=0;exitDy=0;edgeStyle=orthogonalEdgeStyle;fontFamily=Garamond;" edge="1" target="31" parent="1" source="10">
                    <mxGeometry relative="1" as="geometry">
                        <mxPoint x="580" y="235" as="sourcePoint"/>
                        <Array as="points">
                            <mxPoint x="705" y="255"/>
                        </Array>
                    </mxGeometry>
                </mxCell>
                <mxCell id="31" value="" style="ellipse;whiteSpace=wrap;html=1;align=center;aspect=fixed;resizable=0;points=[];outlineConnect=0;sketch=0;fontFamily=Garamond;" vertex="1" parent="1">
                    <mxGeometry x="700" y="200" width="10" height="10" as="geometry"/>
                </mxCell>
                <mxCell id="33" value="" style="rounded=0;orthogonalLoop=1;jettySize=auto;html=1;endArrow=none;endFill=0;sketch=0;sourcePerimeterSpacing=0;targetPerimeterSpacing=0;exitX=0.5;exitY=1;exitDx=0;exitDy=0;edgeStyle=orthogonalEdgeStyle;fontFamily=Garamond;" edge="1" target="35" parent="1" source="16">
                    <mxGeometry relative="1" as="geometry">
                        <mxPoint x="515" y="215" as="sourcePoint"/>
                        <Array as="points">
                            <mxPoint x="545" y="195"/>
                        </Array>
                    </mxGeometry>
                </mxCell>
                <mxCell id="34" value="" style="rounded=0;orthogonalLoop=1;jettySize=auto;html=1;endArrow=halfCircle;endFill=0;entryX=0.5;entryY=0.5;endSize=6;strokeWidth=1;sketch=0;edgeStyle=orthogonalEdgeStyle;fontFamily=Garamond;exitX=0.804;exitY=-0.019;exitDx=0;exitDy=0;exitPerimeter=0;" edge="1" target="35" parent="1" source="10">
                    <mxGeometry relative="1" as="geometry">
                        <mxPoint x="590" y="195" as="sourcePoint"/>
                        <Array as="points">
                            <mxPoint x="395" y="195"/>
                        </Array>
                    </mxGeometry>
                </mxCell>
                <mxCell id="35" value="" style="ellipse;whiteSpace=wrap;html=1;align=center;aspect=fixed;resizable=0;points=[];outlineConnect=0;sketch=0;fontFamily=Garamond;" vertex="1" parent="1">
                    <mxGeometry x="500" y="190" width="10" height="10" as="geometry"/>
                </mxCell>
                <mxCell id="36" value="" style="rounded=0;orthogonalLoop=1;jettySize=auto;html=1;endArrow=none;endFill=0;sketch=0;sourcePerimeterSpacing=0;targetPerimeterSpacing=0;exitX=0.5;exitY=1;exitDx=0;exitDy=0;fontFamily=Garamond;" edge="1" target="38" parent="1" source="14">
                    <mxGeometry relative="1" as="geometry">
                        <mxPoint x="390" y="215" as="sourcePoint"/>
                    </mxGeometry>
                </mxCell>
                <mxCell id="37" value="" style="rounded=0;orthogonalLoop=1;jettySize=auto;html=1;endArrow=halfCircle;endFill=0;entryX=0.5;entryY=0.5;endSize=6;strokeWidth=1;sketch=0;exitX=0.5;exitY=0;exitDx=0;exitDy=0;fontFamily=Garamond;" edge="1" target="38" parent="1" source="10">
                    <mxGeometry relative="1" as="geometry">
                        <mxPoint x="430" y="215" as="sourcePoint"/>
                    </mxGeometry>
                </mxCell>
                <mxCell id="38" value="" style="ellipse;whiteSpace=wrap;html=1;align=center;aspect=fixed;resizable=0;points=[];outlineConnect=0;sketch=0;fontFamily=Garamond;" vertex="1" parent="1">
                    <mxGeometry x="335" y="180" width="10" height="10" as="geometry"/>
                </mxCell>
                <mxCell id="40" value="" style="rounded=0;orthogonalLoop=1;jettySize=auto;html=1;endArrow=none;endFill=0;sketch=0;sourcePerimeterSpacing=0;targetPerimeterSpacing=0;exitX=0.5;exitY=1;exitDx=0;exitDy=0;edgeStyle=orthogonalEdgeStyle;fontFamily=Garamond;" edge="1" target="42" parent="1" source="12">
                    <mxGeometry relative="1" as="geometry">
                        <mxPoint x="144" y="188" as="sourcePoint"/>
                        <Array as="points">
                            <mxPoint x="130" y="188"/>
                        </Array>
                    </mxGeometry>
                </mxCell>
                <mxCell id="41" value="" style="rounded=0;orthogonalLoop=1;jettySize=auto;html=1;endArrow=halfCircle;endFill=0;entryX=0.5;entryY=0.5;endSize=6;strokeWidth=1;sketch=0;exitX=0;exitY=0.5;exitDx=0;exitDy=0;edgeStyle=orthogonalEdgeStyle;fontFamily=Garamond;" edge="1" target="42" parent="1" source="10">
                    <mxGeometry relative="1" as="geometry">
                        <mxPoint x="184" y="188" as="sourcePoint"/>
                        <Array as="points">
                            <mxPoint x="130" y="255"/>
                        </Array>
                    </mxGeometry>
                </mxCell>
                <mxCell id="42" value="" style="ellipse;whiteSpace=wrap;html=1;align=center;aspect=fixed;resizable=0;points=[];outlineConnect=0;sketch=0;fontFamily=Garamond;" vertex="1" parent="1">
                    <mxGeometry x="125" y="220" width="10" height="10" as="geometry"/>
                </mxCell>
                <mxCell id="43" value="" style="rounded=0;orthogonalLoop=1;jettySize=auto;html=1;endArrow=none;endFill=0;sketch=0;sourcePerimeterSpacing=0;targetPerimeterSpacing=0;exitX=0.5;exitY=1;exitDx=0;exitDy=0;exitPerimeter=0;fontFamily=Garamond;" edge="1" target="45" parent="1" source="7">
                    <mxGeometry relative="1" as="geometry">
                        <mxPoint x="340" y="570" as="sourcePoint"/>
                    </mxGeometry>
                </mxCell>
                <mxCell id="44" value="" style="rounded=0;orthogonalLoop=1;jettySize=auto;html=1;endArrow=halfCircle;endFill=0;entryX=0.5;entryY=0.5;endSize=6;strokeWidth=1;sketch=0;fontFamily=Garamond;" edge="1" target="45" parent="1">
                    <mxGeometry relative="1" as="geometry">
                        <mxPoint x="340" y="570" as="sourcePoint"/>
                    </mxGeometry>
                </mxCell>
                <mxCell id="45" value="" style="ellipse;whiteSpace=wrap;html=1;align=center;aspect=fixed;resizable=0;points=[];outlineConnect=0;sketch=0;fontFamily=Garamond;" vertex="1" parent="1">
                    <mxGeometry x="335" y="540" width="10" height="10" as="geometry"/>
                </mxCell>
                <mxCell id="46" value="" style="rounded=0;orthogonalLoop=1;jettySize=auto;html=1;endArrow=none;endFill=0;sketch=0;sourcePerimeterSpacing=0;targetPerimeterSpacing=0;exitX=0.5;exitY=0;exitDx=0;exitDy=0;exitPerimeter=0;fontFamily=Garamond;" edge="1" target="48" parent="1" source="7">
                    <mxGeometry relative="1" as="geometry">
                        <mxPoint x="410" y="345" as="sourcePoint"/>
                    </mxGeometry>
                </mxCell>
                <mxCell id="47" value="" style="rounded=0;orthogonalLoop=1;jettySize=auto;html=1;endArrow=halfCircle;endFill=0;entryX=0.5;entryY=0.5;endSize=6;strokeWidth=1;sketch=0;fontFamily=Garamond;" edge="1" target="48" parent="1">
                    <mxGeometry relative="1" as="geometry">
                        <mxPoint x="340" y="300" as="sourcePoint"/>
                    </mxGeometry>
                </mxCell>
                <mxCell id="48" value="" style="ellipse;whiteSpace=wrap;html=1;align=center;aspect=fixed;resizable=0;points=[];outlineConnect=0;sketch=0;fontFamily=Garamond;" vertex="1" parent="1">
                    <mxGeometry x="335" y="330" width="10" height="10" as="geometry"/>
                </mxCell>
                <mxCell id="49" value="" style="rounded=0;orthogonalLoop=1;jettySize=auto;html=1;endArrow=none;endFill=0;sketch=0;sourcePerimeterSpacing=0;targetPerimeterSpacing=0;edgeStyle=orthogonalEdgeStyle;fontFamily=Garamond;" edge="1" target="51" parent="1">
                    <mxGeometry relative="1" as="geometry">
                        <mxPoint x="164" y="570" as="sourcePoint"/>
                        <Array as="points">
                            <mxPoint x="164" y="550"/>
                            <mxPoint x="164" y="550"/>
                        </Array>
                    </mxGeometry>
                </mxCell>
                <mxCell id="50" value="" style="rounded=0;orthogonalLoop=1;jettySize=auto;html=1;endArrow=halfCircle;endFill=0;entryX=0.5;entryY=0.5;endSize=6;strokeWidth=1;sketch=0;edgeStyle=orthogonalEdgeStyle;exitX=-0.001;exitY=0.672;exitDx=0;exitDy=0;exitPerimeter=0;fontFamily=Garamond;" edge="1" target="51" parent="1" source="7">
                    <mxGeometry relative="1" as="geometry">
                        <mxPoint x="210" y="469" as="sourcePoint"/>
                        <Array as="points">
                            <mxPoint x="225" y="469"/>
                            <mxPoint x="164" y="469"/>
                        </Array>
                    </mxGeometry>
                </mxCell>
                <mxCell id="51" value="" style="ellipse;whiteSpace=wrap;html=1;align=center;aspect=fixed;resizable=0;points=[];outlineConnect=0;sketch=0;gradientColor=#ffffff;fontFamily=Garamond;" vertex="1" parent="1">
                    <mxGeometry x="159" y="515" width="10" height="10" as="geometry"/>
                </mxCell>
                <mxCell id="53" value="" style="rounded=0;orthogonalLoop=1;jettySize=auto;html=1;endArrow=none;endFill=0;sketch=0;sourcePerimeterSpacing=0;targetPerimeterSpacing=0;exitX=0.002;exitY=0.398;exitDx=0;exitDy=0;exitPerimeter=0;edgeStyle=orthogonalEdgeStyle;fontFamily=Garamond;" edge="1" target="55" parent="1" source="7">
                    <mxGeometry relative="1" as="geometry">
                        <mxPoint x="410" y="465" as="sourcePoint"/>
                        <Array as="points">
                            <mxPoint x="85" y="424"/>
                        </Array>
                    </mxGeometry>
                </mxCell>
                <mxCell id="54" value="" style="rounded=0;orthogonalLoop=1;jettySize=auto;html=1;endArrow=halfCircle;endFill=0;entryX=0.5;entryY=0.5;endSize=6;strokeWidth=1;sketch=0;edgeStyle=orthogonalEdgeStyle;fontFamily=Garamond;" edge="1" target="55" parent="1">
                    <mxGeometry relative="1" as="geometry">
                        <mxPoint x="85" y="570" as="sourcePoint"/>
                        <Array as="points">
                            <mxPoint x="85" y="570"/>
                        </Array>
                    </mxGeometry>
                </mxCell>
                <mxCell id="55" value="" style="ellipse;whiteSpace=wrap;html=1;align=center;aspect=fixed;resizable=0;points=[];outlineConnect=0;sketch=0;gradientColor=#ffffff;fontFamily=Garamond;" vertex="1" parent="1">
                    <mxGeometry x="80" y="484" width="10" height="10" as="geometry"/>
                </mxCell>
                <mxCell id="59" value="" style="rounded=0;orthogonalLoop=1;jettySize=auto;html=1;endArrow=none;endFill=0;sketch=0;sourcePerimeterSpacing=0;targetPerimeterSpacing=0;exitX=1.006;exitY=0.398;exitDx=0;exitDy=0;exitPerimeter=0;edgeStyle=orthogonalEdgeStyle;fontFamily=Garamond;" edge="1" target="61" parent="1" source="7">
                    <mxGeometry relative="1" as="geometry">
                        <mxPoint x="620" y="425" as="sourcePoint"/>
                        <Array as="points">
                            <mxPoint x="595" y="424"/>
                        </Array>
                    </mxGeometry>
                </mxCell>
                <mxCell id="60" value="" style="rounded=0;orthogonalLoop=1;jettySize=auto;html=1;endArrow=halfCircle;endFill=0;entryX=0.5;entryY=0.5;endSize=6;strokeWidth=1;sketch=0;edgeStyle=orthogonalEdgeStyle;fontFamily=Garamond;" edge="1" target="61" parent="1">
                    <mxGeometry relative="1" as="geometry">
                        <mxPoint x="595" y="570" as="sourcePoint"/>
                    </mxGeometry>
                </mxCell>
                <mxCell id="61" value="" style="ellipse;whiteSpace=wrap;html=1;align=center;aspect=fixed;resizable=0;points=[];outlineConnect=0;sketch=0;gradientColor=#ffffff;fontFamily=Garamond;" vertex="1" parent="1">
                    <mxGeometry x="590" y="482" width="10" height="10" as="geometry"/>
                </mxCell>
                <mxCell id="66" value="" style="rounded=0;orthogonalLoop=1;jettySize=auto;html=1;endArrow=none;endFill=0;sketch=0;sourcePerimeterSpacing=0;targetPerimeterSpacing=0;fontFamily=Garamond;" edge="1" target="68" parent="1">
                    <mxGeometry relative="1" as="geometry">
                        <mxPoint x="520" y="570" as="sourcePoint"/>
                    </mxGeometry>
                </mxCell>
                <mxCell id="67" value="" style="rounded=0;orthogonalLoop=1;jettySize=auto;html=1;endArrow=halfCircle;endFill=0;entryX=0.5;entryY=0.5;endSize=6;strokeWidth=1;sketch=0;exitX=1.001;exitY=0.698;exitDx=0;exitDy=0;exitPerimeter=0;edgeStyle=orthogonalEdgeStyle;fontFamily=Garamond;" edge="1" target="68" parent="1" source="7">
                    <mxGeometry relative="1" as="geometry">
                        <mxPoint x="540" y="515" as="sourcePoint"/>
                        <Array as="points">
                            <mxPoint x="520" y="472"/>
                        </Array>
                    </mxGeometry>
                </mxCell>
                <mxCell id="68" value="" style="ellipse;whiteSpace=wrap;html=1;align=center;aspect=fixed;resizable=0;points=[];outlineConnect=0;sketch=0;gradientColor=#ffffff;fontFamily=Garamond;" vertex="1" parent="1">
                    <mxGeometry x="515" y="518" width="10" height="10" as="geometry"/>
                </mxCell>
                <mxCell id="69" value="historische&lt;br&gt;Zeitreihen" style="text;html=1;align=center;verticalAlign=middle;resizable=0;points=[];autosize=1;strokeColor=none;fillColor=none;fontFamily=Garamond;" vertex="1" parent="1">
                    <mxGeometry x="10" y="472" width="70" height="30" as="geometry"/>
                </mxCell>
                <mxCell id="70" value="vorhergesagte&lt;br&gt;Zeitreihen" style="text;html=1;align=center;verticalAlign=middle;resizable=0;points=[];autosize=1;strokeColor=none;fillColor=none;fontFamily=Garamond;" vertex="1" parent="1">
                    <mxGeometry x="89" y="498" width="80" height="30" as="geometry"/>
                </mxCell>
                <mxCell id="71" value="Aktuelle&lt;br&gt;&amp;nbsp;Tagesdaten" style="text;html=1;align=center;verticalAlign=middle;resizable=0;points=[];autosize=1;strokeColor=none;fillColor=none;fontFamily=Garamond;" vertex="1" parent="1">
                    <mxGeometry x="265" y="528" width="70" height="30" as="geometry"/>
                </mxCell>
                <mxCell id="72" value="Python API InfluxDB" style="text;html=1;align=center;verticalAlign=middle;resizable=0;points=[];autosize=1;strokeColor=none;fillColor=none;fontFamily=Garamond;" vertex="1" parent="1">
                    <mxGeometry x="345" y="330" width="120" height="20" as="geometry"/>
                </mxCell>
                <mxCell id="73" value="Fahrpläne&lt;br&gt;&amp;nbsp;Gebäudesteuerung" style="text;html=1;align=center;verticalAlign=middle;resizable=0;points=[];autosize=1;strokeColor=none;fillColor=none;fontFamily=Garamond;" vertex="1" parent="1">
                    <mxGeometry x="415" y="510" width="110" height="30" as="geometry"/>
                </mxCell>
                <mxCell id="74" value="historische Zeitreihen&lt;br&gt;&amp;nbsp;und vorhergesagte Zeitreihen" style="text;html=1;align=center;verticalAlign=middle;resizable=0;points=[];autosize=1;strokeColor=none;fillColor=none;fontFamily=Garamond;" vertex="1" parent="1">
                    <mxGeometry x="600" y="480" width="150" height="30" as="geometry"/>
                </mxCell>
                <mxCell id="75" value="Leistungsdaten" style="text;html=1;align=center;verticalAlign=middle;resizable=0;points=[];autosize=1;strokeColor=none;fillColor=none;fontFamily=Garamond;" vertex="1" parent="1">
                    <mxGeometry x="720" y="200" width="90" height="20" as="geometry"/>
                </mxCell>
                <mxCell id="76" value="Wetterdaten" style="text;html=1;align=center;verticalAlign=middle;resizable=0;points=[];autosize=1;strokeColor=none;fillColor=none;fontFamily=Garamond;" vertex="1" parent="1">
                    <mxGeometry x="470" y="200" width="70" height="20" as="geometry"/>
                </mxCell>
                <mxCell id="77" value="Gebäudedaten" style="text;html=1;align=center;verticalAlign=middle;resizable=0;points=[];autosize=1;strokeColor=none;fillColor=none;fontFamily=Garamond;" vertex="1" parent="1">
                    <mxGeometry x="345" y="170" width="80" height="20" as="geometry"/>
                </mxCell>
                <mxCell id="78" value="historische Daten" style="text;html=1;align=center;verticalAlign=middle;resizable=0;points=[];autosize=1;strokeColor=none;fillColor=none;fontFamily=Garamond;" vertex="1" parent="1">
                    <mxGeometry x="135" y="215" width="100" height="20" as="geometry"/>
                </mxCell>
            </root>
        </mxGraphModel>
    </diagram>
</mxfile>